<svg xmlns="http://www.w3.org/2000/svg" xmlns:xlink="http://www.w3.org/1999/xlink" width="184" zoomAndPan="magnify" viewBox="0 0 138 36.000001" height="48" preserveAspectRatio="xMidYMid meet" version="1.0"><defs><g><g id="id1"/></g><clipPath id="id2"><path d="M 1.863281 0 L 136.132812 0 L 136.132812 35.027344 L 1.863281 35.027344 Z M 1.863281 0 " clip-rule="nonzero"/></clipPath></defs><g clip-path="url(#id2)"><path fill="rgb(100%, 100%, 100%)" d="M 1.863281 0 L 136.136719 0 L 136.136719 42.324219 L 1.863281 42.324219 Z M 1.863281 0 " fill-opacity="1" fill-rule="nonzero"/><path fill="rgb(100%, 100%, 100%)" d="M 1.863281 0 L 136.136719 0 L 136.136719 35.027344 L 1.863281 35.027344 Z M 1.863281 0 " fill-opacity="1" fill-rule="nonzero"/><path fill="rgb(100%, 100%, 100%)" d="M 1.863281 0 L 136.136719 0 L 136.136719 35.027344 L 1.863281 35.027344 Z M 1.863281 0 " fill-opacity="1" fill-rule="nonzero"/><path fill="rgb(100%, 100%, 100%)" d="M 1.863281 0 L 136.136719 0 L 136.136719 35.027344 L 1.863281 35.027344 Z M 1.863281 0 " fill-opacity="1" fill-rule="nonzero"/></g><g fill="rgb(0%, 0%, 0%)" fill-opacity="1"><g transform="translate(43.762623, 19.199836)"><g><path d="M 8.640625 0 L 6.28125 0 L 3.8125 -7.671875 L 3.734375 -7.671875 L 3.6875 -7.265625 C 3.5625 -6.273438 3.425781 -5.441406 3.28125 -4.765625 L 2.28125 0 L 0.375 0 L 2.515625 -10.140625 L 4.984375 -10.140625 L 7.34375 -2.671875 L 7.40625 -2.671875 C 7.5625 -3.703125 7.71875 -4.59375 7.875 -5.34375 L 8.890625 -10.140625 L 10.796875 -10.140625 Z M 8.640625 0 "/></g></g><g transform="translate(54.490103, 19.199836)"><g><path d="M 9.9375 -6.5 C 9.9375 -5.195312 9.707031 -4.023438 9.25 -2.984375 C 8.789062 -1.953125 8.160156 -1.171875 7.359375 -0.640625 C 6.566406 -0.117188 5.65625 0.140625 4.625 0.140625 C 3.4375 0.140625 2.507812 -0.195312 1.84375 -0.875 C 1.1875 -1.5625 0.859375 -2.507812 0.859375 -3.71875 C 0.859375 -4.945312 1.082031 -6.070312 1.53125 -7.09375 C 1.988281 -8.125 2.617188 -8.914062 3.421875 -9.46875 C 4.234375 -10.019531 5.164062 -10.296875 6.21875 -10.296875 C 7.394531 -10.296875 8.304688 -9.960938 8.953125 -9.296875 C 9.609375 -8.628906 9.9375 -7.695312 9.9375 -6.5 Z M 6.046875 -8.515625 C 5.484375 -8.515625 4.96875 -8.300781 4.5 -7.875 C 4.039062 -7.445312 3.675781 -6.863281 3.40625 -6.125 C 3.144531 -5.382812 3.015625 -4.582031 3.015625 -3.71875 C 3.015625 -3.039062 3.164062 -2.53125 3.46875 -2.1875 C 3.78125 -1.84375 4.210938 -1.671875 4.765625 -1.671875 C 5.328125 -1.671875 5.835938 -1.867188 6.296875 -2.265625 C 6.753906 -2.671875 7.113281 -3.238281 7.375 -3.96875 C 7.632812 -4.707031 7.765625 -5.535156 7.765625 -6.453125 C 7.765625 -7.109375 7.613281 -7.613281 7.3125 -7.96875 C 7.007812 -8.332031 6.585938 -8.515625 6.046875 -8.515625 Z M 6.046875 -8.515625 "/></g></g><g transform="translate(64.863701, 19.199836)"><g><path d="M 8.640625 0 L 6.28125 0 L 3.8125 -7.671875 L 3.734375 -7.671875 L 3.6875 -7.265625 C 3.5625 -6.273438 3.425781 -5.441406 3.28125 -4.765625 L 2.28125 0 L 0.375 0 L 2.515625 -10.140625 L 4.984375 -10.140625 L 7.34375 -2.671875 L 7.40625 -2.671875 C 7.5625 -3.703125 7.71875 -4.59375 7.875 -5.34375 L 8.890625 -10.140625 L 10.796875 -10.140625 Z M 8.640625 0 "/></g></g><g transform="translate(75.591181, 19.199836)"><g><path d="M 0.28125 -2.9375 L 0.65625 -4.671875 L 4.28125 -4.671875 L 3.921875 -2.9375 Z M 0.28125 -2.9375 "/></g></g><g transform="translate(80.163891, 19.199836)"><g><path d="M 8.640625 0 L 6.28125 0 L 3.8125 -7.671875 L 3.734375 -7.671875 L 3.6875 -7.265625 C 3.5625 -6.273438 3.425781 -5.441406 3.28125 -4.765625 L 2.28125 0 L 0.375 0 L 2.515625 -10.140625 L 4.984375 -10.140625 L 7.34375 -2.671875 L 7.40625 -2.671875 C 7.5625 -3.703125 7.71875 -4.59375 7.875 -5.34375 L 8.890625 -10.140625 L 10.796875 -10.140625 Z M 8.640625 0 "/></g></g><g transform="translate(90.891371, 19.199836)"><g><path d="M 6.03125 0 L 0.375 0 L 2.515625 -10.140625 L 8.1875 -10.140625 L 7.8125 -8.375 L 4.265625 -8.375 L 3.796875 -6.15625 L 7.109375 -6.15625 L 6.71875 -4.390625 L 3.40625 -4.390625 L 2.859375 -1.78125 L 6.40625 -1.78125 Z M 6.03125 0 "/></g></g><g transform="translate(98.593507, 19.199836)"><g><path d="M 7.796875 0 L 5.5 0 L 4.3125 -3.765625 L 1.5625 0 L -0.8125 0 L 3.1875 -5.296875 L 1.53125 -10.140625 L 3.75 -10.140625 L 4.8125 -6.546875 L 7.328125 -10.140625 L 9.71875 -10.140625 L 5.9375 -5.109375 Z M 7.796875 0 "/></g></g><g transform="translate(107.204635, 19.199836)"><g><path d="M 3.953125 0 L 1.84375 0 L 3.609375 -8.34375 L 1.171875 -8.34375 L 1.546875 -10.140625 L 8.546875 -10.140625 L 8.171875 -8.34375 L 5.71875 -8.34375 Z M 3.953125 0 "/></g></g></g><g fill="rgb(0%, 0%, 0%)" fill-opacity="1"><g transform="translate(43.762623, 28.218212)"><g><path d="M 1.464844 -2.949219 C 1.277344 -3.160156 0.894531 -3.449219 0.597656 -3.648438 L 0.347656 -3.394531 C 0.648438 -3.183594 1.023438 -2.878906 1.199219 -2.671875 Z M 1.296875 -1.714844 C 0.894531 -1.296875 0.46875 -0.863281 0.195312 -0.605469 L 0.421875 -0.316406 C 0.742188 -0.621094 1.136719 -1.03125 1.488281 -1.410156 Z M 3.070312 -2.765625 L 4.046875 -2.765625 C 3.949219 -2.453125 3.800781 -2.101562 3.679688 -1.886719 C 3.765625 -1.851562 3.898438 -1.777344 3.972656 -1.742188 C 4.148438 -2.054688 4.367188 -2.539062 4.496094 -2.992188 L 4.238281 -3.136719 L 4.167969 -3.117188 L 2.257812 -3.117188 C 2.34375 -3.363281 2.414062 -3.617188 2.480469 -3.882812 L 2.113281 -3.949219 C 1.953125 -3.199219 1.664062 -2.46875 1.265625 -2.003906 C 1.359375 -1.960938 1.53125 -1.863281 1.601562 -1.804688 C 1.796875 -2.066406 1.976562 -2.398438 2.125 -2.765625 L 2.703125 -2.765625 L 2.703125 -2.167969 C 2.703125 -1.730469 2.457031 -0.492188 1.023438 0.0742188 C 1.089844 0.136719 1.199219 0.285156 1.242188 0.359375 C 2.375 -0.117188 2.804688 -1.066406 2.886719 -1.511719 C 2.949219 -1.070312 3.359375 -0.09375 4.34375 0.359375 C 4.402344 0.273438 4.507812 0.128906 4.570312 0.046875 C 3.292969 -0.507812 3.066406 -1.757812 3.070312 -2.167969 Z M 3.070312 -2.765625 "/></g></g></g><g fill="rgb(0%, 0%, 0%)" fill-opacity="1"><g transform="translate(48.499589, 28.218212)"><g><path d="M 3.46875 -2.457031 L 3.226562 -2.355469 C 3.367188 -2.160156 3.503906 -1.914062 3.613281 -1.6875 L 3.855469 -1.800781 C 3.757812 -2.007812 3.578125 -2.300781 3.46875 -2.457031 Z M 3.984375 -2.65625 L 3.746094 -2.546875 C 3.898438 -2.347656 4.035156 -2.117188 4.148438 -1.890625 L 4.394531 -2.003906 C 4.28125 -2.210938 4.097656 -2.5 3.984375 -2.65625 Z M 0.394531 -3.117188 L 0.4375 -2.699219 C 0.941406 -2.804688 2.222656 -2.925781 2.632812 -2.976562 C 2.203125 -2.71875 1.761719 -2.121094 1.761719 -1.394531 C 1.761719 -0.347656 2.753906 0.117188 3.617188 0.15625 L 3.757812 -0.242188 C 2.992188 -0.269531 2.140625 -0.558594 2.140625 -1.472656 C 2.140625 -2.027344 2.542969 -2.742188 3.210938 -2.957031 C 3.453125 -3.027344 3.859375 -3.03125 4.128906 -3.03125 L 4.128906 -3.410156 C 3.816406 -3.394531 3.378906 -3.371094 2.867188 -3.328125 C 2.003906 -3.253906 1.117188 -3.167969 0.808594 -3.140625 C 0.71875 -3.132812 0.574219 -3.121094 0.394531 -3.117188 Z M 0.394531 -3.117188 "/></g></g></g><g fill="rgb(0%, 0%, 0%)" fill-opacity="1"><g transform="translate(53.236554, 28.218212)"><g><path d="M 0.804688 -3.636719 C 0.804688 -3.539062 0.792969 -3.414062 0.773438 -3.304688 C 0.714844 -2.917969 0.558594 -2.023438 0.558594 -1.335938 C 0.558594 -0.699219 0.644531 -0.183594 0.738281 0.152344 L 1.074219 0.125 C 1.070312 0.0742188 1.0625 0.0078125 1.0625 -0.0390625 C 1.054688 -0.09375 1.070312 -0.183594 1.085938 -0.246094 C 1.132812 -0.476562 1.296875 -0.957031 1.417969 -1.285156 L 1.21875 -1.441406 C 1.136719 -1.25 1.027344 -0.972656 0.953125 -0.757812 C 0.917969 -0.984375 0.910156 -1.171875 0.910156 -1.398438 C 0.910156 -1.921875 1.046875 -2.851562 1.140625 -3.289062 C 1.15625 -3.371094 1.195312 -3.527344 1.222656 -3.605469 Z M 3.199219 -0.730469 C 3.199219 -0.417969 3.082031 -0.222656 2.6875 -0.222656 C 2.347656 -0.222656 2.121094 -0.355469 2.121094 -0.585938 C 2.121094 -0.804688 2.363281 -0.960938 2.714844 -0.960938 C 2.878906 -0.960938 3.042969 -0.9375 3.191406 -0.886719 C 3.199219 -0.828125 3.199219 -0.773438 3.199219 -0.730469 Z M 4.476562 -0.496094 C 4.230469 -0.714844 3.933594 -0.957031 3.550781 -1.109375 C 3.535156 -1.5 3.5 -1.96875 3.496094 -2.441406 C 3.773438 -2.457031 4.050781 -2.488281 4.304688 -2.53125 L 4.304688 -2.898438 C 4.054688 -2.847656 3.78125 -2.808594 3.496094 -2.789062 C 3.5 -3.007812 3.503906 -3.226562 3.511719 -3.355469 C 3.515625 -3.449219 3.523438 -3.542969 3.539062 -3.632812 L 3.109375 -3.632812 C 3.121094 -3.550781 3.132812 -3.429688 3.132812 -3.347656 L 3.132812 -2.765625 C 2.984375 -2.761719 2.835938 -2.757812 2.691406 -2.757812 C 2.414062 -2.757812 2.160156 -2.769531 1.894531 -2.800781 L 1.894531 -2.441406 C 2.167969 -2.425781 2.414062 -2.410156 2.679688 -2.410156 C 2.832031 -2.410156 2.980469 -2.414062 3.132812 -2.421875 C 3.136719 -2.03125 3.164062 -1.582031 3.179688 -1.222656 C 3.046875 -1.25 2.898438 -1.265625 2.742188 -1.265625 C 2.125 -1.265625 1.777344 -0.941406 1.777344 -0.550781 C 1.777344 -0.132812 2.121094 0.128906 2.753906 0.128906 C 3.386719 0.128906 3.566406 -0.25 3.566406 -0.640625 L 3.566406 -0.726562 C 3.808594 -0.59375 4.039062 -0.40625 4.273438 -0.191406 Z M 4.476562 -0.496094 "/></g></g></g><g fill="rgb(0%, 0%, 0%)" fill-opacity="1"><g transform="translate(57.97352, 28.218212)"><g><path d="M 4.394531 -2.480469 C 4.171875 -2.652344 3.636719 -2.957031 3.296875 -3.109375 L 3.113281 -2.8125 C 3.425781 -2.671875 3.933594 -2.382812 4.183594 -2.167969 Z M 2.691406 -3.191406 C 2.453125 -3.117188 2.207031 -3.058594 1.960938 -3.023438 C 2.035156 -3.292969 2.097656 -3.578125 2.144531 -3.746094 L 1.722656 -3.785156 C 1.714844 -3.535156 1.648438 -3.234375 1.578125 -2.976562 C 1.398438 -2.960938 1.222656 -2.949219 1.054688 -2.949219 C 0.851562 -2.949219 0.652344 -2.960938 0.476562 -2.984375 L 0.507812 -2.628906 C 0.683594 -2.621094 0.875 -2.613281 1.050781 -2.613281 C 1.1875 -2.613281 1.328125 -2.621094 1.464844 -2.628906 C 1.25 -2.078125 0.851562 -1.332031 0.460938 -0.875 L 0.828125 -0.6875 C 1.203125 -1.195312 1.621094 -2.007812 1.851562 -2.671875 C 2.160156 -2.710938 2.453125 -2.769531 2.699219 -2.84375 Z M 2.9375 -0.574219 C 2.9375 -0.339844 2.808594 -0.128906 2.425781 -0.128906 C 2.0625 -0.128906 1.886719 -0.273438 1.886719 -0.492188 C 1.886719 -0.707031 2.113281 -0.863281 2.457031 -0.863281 C 2.625 -0.863281 2.785156 -0.839844 2.933594 -0.796875 C 2.9375 -0.710938 2.9375 -0.632812 2.9375 -0.574219 Z M 2.871094 -2.296875 C 2.878906 -1.96875 2.902344 -1.511719 2.917969 -1.128906 C 2.78125 -1.15625 2.628906 -1.171875 2.472656 -1.171875 C 1.941406 -1.171875 1.535156 -0.890625 1.535156 -0.460938 C 1.535156 0.00390625 1.957031 0.21875 2.472656 0.21875 C 3.050781 0.21875 3.296875 -0.0898438 3.296875 -0.464844 C 3.296875 -0.515625 3.296875 -0.582031 3.292969 -0.652344 C 3.59375 -0.507812 3.847656 -0.296875 4.046875 -0.117188 L 4.25 -0.441406 C 4.007812 -0.648438 3.679688 -0.882812 3.277344 -1.027344 C 3.269531 -1.3125 3.25 -1.621094 3.246094 -1.789062 C 3.238281 -1.964844 3.234375 -2.101562 3.25 -2.296875 Z M 2.871094 -2.296875 "/></g></g></g><g fill="rgb(0%, 0%, 0%)" fill-opacity="1"><g transform="translate(62.710486, 28.218212)"><g><path d="M 2.976562 -3.792969 C 2.921875 -3.710938 2.800781 -3.578125 2.703125 -3.480469 C 2.386719 -3.160156 1.675781 -2.601562 1.328125 -2.300781 C 0.898438 -1.945312 0.851562 -1.734375 1.292969 -1.363281 C 1.734375 -1.003906 2.515625 -0.335938 2.769531 -0.0625 C 2.871094 0.046875 3 0.164062 3.09375 0.28125 L 3.433594 -0.0273438 C 2.976562 -0.484375 2.109375 -1.203125 1.679688 -1.542969 C 1.378906 -1.796875 1.378906 -1.867188 1.664062 -2.113281 C 2.007812 -2.398438 2.679688 -2.9375 3.007812 -3.214844 C 3.082031 -3.28125 3.226562 -3.40625 3.328125 -3.480469 Z M 2.976562 -3.792969 "/></g></g></g><g fill="rgb(0%, 0%, 0%)" fill-opacity="1"><g transform="translate(67.447451, 28.218212)"><g><path d="M 1.617188 -0.0078125 C 1.320312 -0.355469 0.894531 -0.785156 0.554688 -1.0625 L 0.246094 -0.792969 C 0.582031 -0.515625 0.988281 -0.113281 1.292969 0.265625 Z M 1.617188 -0.0078125 "/></g></g></g><g fill="rgb(0%, 0%, 0%)" fill-opacity="1"><g transform="translate(72.184417, 28.218212)"><g><path d="M 3.570312 -1.554688 L 0.730469 -1.554688 L 0.730469 -1.222656 L 3.390625 -1.222656 C 3.199219 -0.785156 2.902344 -0.183594 2.664062 0.28125 L 3.023438 0.378906 C 3.320312 -0.203125 3.679688 -0.964844 3.90625 -1.492188 L 3.632812 -1.574219 Z M 1.335938 -2.472656 L 1.335938 -2.152344 L 3.402344 -2.152344 L 3.402344 -2.472656 Z M 2.15625 -3.972656 C 1.785156 -3.355469 0.996094 -2.570312 0.179688 -2.101562 C 0.261719 -2.027344 0.359375 -1.910156 0.402344 -1.828125 C 1.199219 -2.316406 1.964844 -3.046875 2.34375 -3.628906 C 2.777344 -3.023438 3.605469 -2.292969 4.335938 -1.851562 C 4.394531 -1.957031 4.480469 -2.074219 4.570312 -2.15625 C 3.832031 -2.546875 2.992188 -3.273438 2.5 -3.972656 Z M 2.15625 -3.972656 "/></g></g></g><g fill="rgb(0%, 0%, 0%)" fill-opacity="1"><g transform="translate(76.921383, 28.218212)"><g><path d="M 2.804688 -0.640625 C 2.800781 -0.867188 2.792969 -1.265625 2.789062 -1.535156 C 3.144531 -1.699219 3.480469 -1.839844 3.746094 -1.941406 C 3.871094 -1.988281 4.039062 -2.054688 4.160156 -2.089844 L 4.007812 -2.445312 C 3.875 -2.378906 3.761719 -2.320312 3.617188 -2.257812 C 3.371094 -2.144531 3.089844 -2.03125 2.765625 -1.878906 C 2.695312 -2.160156 2.449219 -2.308594 2.144531 -2.308594 C 1.9375 -2.308594 1.667969 -2.242188 1.496094 -2.132812 C 1.667969 -2.347656 1.8125 -2.609375 1.917969 -2.851562 C 2.429688 -2.871094 3.007812 -2.914062 3.472656 -2.984375 L 3.476562 -3.335938 C 3.03125 -3.257812 2.519531 -3.214844 2.042969 -3.191406 C 2.109375 -3.40625 2.152344 -3.601562 2.183594 -3.734375 L 1.796875 -3.765625 C 1.785156 -3.605469 1.742188 -3.390625 1.675781 -3.183594 C 1.566406 -3.179688 1.46875 -3.179688 1.367188 -3.179688 C 1.15625 -3.179688 0.828125 -3.199219 0.578125 -3.226562 L 0.578125 -2.871094 C 0.832031 -2.851562 1.152344 -2.84375 1.351562 -2.84375 L 1.542969 -2.84375 C 1.367188 -2.472656 1.0625 -1.988281 0.464844 -1.410156 L 0.785156 -1.171875 C 0.949219 -1.359375 1.078125 -1.535156 1.210938 -1.664062 C 1.429688 -1.855469 1.714844 -2.007812 2.023438 -2.007812 C 2.226562 -2.007812 2.398438 -1.914062 2.445312 -1.71875 C 1.898438 -1.433594 1.339844 -1.085938 1.339844 -0.53125 C 1.339844 0.0429688 1.878906 0.183594 2.554688 0.183594 C 2.960938 0.183594 3.480469 0.152344 3.835938 0.109375 L 3.847656 -0.273438 C 3.433594 -0.203125 2.933594 -0.160156 2.566406 -0.160156 C 2.085938 -0.160156 1.71875 -0.214844 1.71875 -0.582031 C 1.71875 -0.890625 2.023438 -1.132812 2.457031 -1.367188 C 2.457031 -1.121094 2.453125 -0.820312 2.441406 -0.640625 Z M 2.804688 -0.640625 "/></g></g></g><path fill="rgb(26.669312%, 36.468506%, 82.749939%)" d="M 28.332031 8.34375 C 27.644531 8.34375 26.96875 8.410156 26.296875 8.542969 C 25.625 8.675781 24.972656 8.875 24.339844 9.136719 C 23.707031 9.398438 23.105469 9.722656 22.535156 10.101562 C 21.964844 10.480469 21.4375 10.914062 20.953125 11.398438 C 20.46875 11.882812 20.039062 12.410156 19.65625 12.980469 C 19.277344 13.546875 18.957031 14.148438 18.695312 14.78125 C 18.429688 15.414062 18.234375 16.066406 18.101562 16.738281 C 17.964844 17.410156 17.898438 18.089844 17.898438 18.773438 C 17.898438 19.460938 17.964844 20.136719 18.101562 20.808594 C 18.234375 21.480469 18.429688 22.132812 18.695312 22.765625 C 18.957031 23.398438 19.277344 24 19.65625 24.570312 C 20.039062 25.140625 20.46875 25.664062 20.953125 26.148438 C 21.4375 26.632812 21.964844 27.066406 22.535156 27.445312 C 23.105469 27.828125 23.707031 28.148438 24.339844 28.410156 C 24.972656 28.671875 25.625 28.871094 26.296875 29.003906 C 26.96875 29.136719 27.644531 29.203125 28.332031 29.203125 C 29.015625 29.203125 29.691406 29.136719 30.363281 29.003906 C 31.035156 28.871094 31.6875 28.671875 32.320312 28.410156 C 32.953125 28.148438 33.554688 27.828125 34.125 27.445312 C 34.695312 27.066406 35.222656 26.632812 35.707031 26.148438 C 36.191406 25.664062 36.621094 25.140625 37.003906 24.570312 C 37.382812 24 37.703125 23.398438 37.96875 22.765625 C 38.230469 22.132812 38.425781 21.480469 38.558594 20.808594 C 38.695312 20.136719 38.761719 19.460938 38.761719 18.773438 C 38.761719 18.089844 38.695312 17.410156 38.558594 16.738281 C 38.425781 16.066406 38.230469 15.414062 37.96875 14.78125 C 37.703125 14.148438 37.382812 13.546875 37.003906 12.980469 C 36.621094 12.410156 36.191406 11.882812 35.707031 11.398438 C 35.222656 10.914062 34.695312 10.480469 34.125 10.101562 C 33.554688 9.722656 32.953125 9.398438 32.320312 9.136719 C 31.6875 8.875 31.035156 8.675781 30.363281 8.542969 C 29.691406 8.410156 29.015625 8.34375 28.332031 8.34375 Z M 28.332031 8.34375 " fill-opacity="1" fill-rule="nonzero"/></svg>